<svg width="521" height="222" viewBox="0 0 521 222" fill="none" xmlns="http://www.w3.org/2000/svg">
<g filter="url(#filter0_d_1017_3311)">
<path d="M497.357 20.3313H23.8533C21.8417 20.3313 20.2109 21.956 20.2109 23.9601V198.141C20.2109 200.145 21.8417 201.77 23.8533 201.77H497.357C499.369 201.77 501 200.145 501 198.141V23.9601C501 21.956 499.369 20.3313 497.357 20.3313Z" fill="#1A2642"/>
<path d="M37.0561 35.7701C37.0064 35.3522 36.805 35.0278 36.4517 34.7969C36.0986 34.566 35.6653 34.4505 35.1521 34.4505C34.7768 34.4505 34.4484 34.511 34.167 34.6319C33.8883 34.7529 33.6704 34.9193 33.5131 35.1309C33.3585 35.3426 33.2813 35.5832 33.2813 35.8526C33.2813 36.078 33.3351 36.2718 33.4427 36.434C33.5531 36.5934 33.6938 36.7267 33.8649 36.8339C34.036 36.9385 34.2153 37.025 34.4029 37.0938C34.5906 37.1597 34.7631 37.2134 34.9203 37.2546L35.7812 37.4855C36.002 37.5432 36.2475 37.623 36.518 37.7247C36.7912 37.8264 37.0519 37.9652 37.3002 38.1412C37.5513 38.3143 37.7583 38.537 37.9211 38.8092C38.0839 39.0813 38.1653 39.4154 38.1653 39.8112C38.1653 40.2676 38.0453 40.6799 37.8052 41.0483C37.5679 41.4166 37.2203 41.7094 36.7622 41.9266C36.3069 42.1438 35.7536 42.2523 35.1025 42.2523C34.4954 42.2523 33.9697 42.1548 33.5255 41.9596C33.0839 41.7644 32.7363 41.4923 32.4825 41.1431C32.2313 40.794 32.0892 40.3885 32.0562 39.9267H33.1157C33.1433 40.2456 33.2509 40.5095 33.4386 40.7184C33.6289 40.9246 33.869 41.0785 34.1587 41.1803C34.4512 41.2792 34.7658 41.3287 35.1025 41.3287C35.4943 41.3287 35.8461 41.2655 36.1579 41.139C36.4697 41.0098 36.7167 40.8311 36.8988 40.6029C37.0809 40.372 37.172 40.1026 37.172 39.7947C37.172 39.5143 37.0933 39.2861 36.936 39.1102C36.7787 38.9343 36.5718 38.7913 36.3151 38.6813C36.0586 38.5714 35.7812 38.4752 35.4832 38.3927L34.4402 38.0958C33.778 37.9061 33.2537 37.6353 32.8674 37.2835C32.4811 36.9316 32.2879 36.4711 32.2879 35.902C32.2879 35.4292 32.4162 35.0168 32.6728 34.665C32.9322 34.3103 33.2799 34.0354 33.7159 33.8402C34.1546 33.6423 34.6444 33.5433 35.1852 33.5433C35.7316 33.5433 36.2172 33.6409 36.6421 33.8361C37.0671 34.0285 37.4038 34.2924 37.6521 34.6279C37.9032 34.9632 38.0356 35.344 38.0494 35.7701H37.0561ZM42.3861 42.2359C41.7735 42.2359 41.2451 42.1012 40.8008 41.8318C40.3594 41.5596 40.0186 41.1803 39.7785 40.6936C39.5412 40.2043 39.4226 39.6353 39.4226 38.9865C39.4226 38.3377 39.5412 37.7659 39.7785 37.2711C40.0186 36.7735 40.3525 36.3859 40.7801 36.1082C41.2106 35.8278 41.7128 35.6876 42.2868 35.6876C42.6178 35.6876 42.9449 35.7426 43.2677 35.8526C43.5906 35.9625 43.8844 36.1412 44.1493 36.3886C44.4142 36.6333 44.6253 36.9577 44.7826 37.3618C44.9398 37.7659 45.0185 38.2635 45.0185 38.8545V39.2669H40.1179V38.4257H44.0252C44.0252 38.0683 43.9534 37.7494 43.8099 37.469C43.6692 37.1886 43.4677 36.9673 43.2056 36.8051C42.9462 36.6429 42.6399 36.5618 42.2868 36.5618C41.8977 36.5618 41.5611 36.658 41.2768 36.8505C40.9954 37.0401 40.7788 37.2875 40.627 37.5927C40.4752 37.8978 40.3994 38.225 40.3994 38.5742V39.1349C40.3994 39.6133 40.4821 40.0188 40.6477 40.3514C40.816 40.6813 41.0492 40.9329 41.3472 41.106C41.6452 41.2764 41.9915 41.3617 42.3861 41.3617C42.6427 41.3617 42.8745 41.3259 43.0814 41.2544C43.2912 41.1803 43.4719 41.0703 43.6236 40.9246C43.7754 40.7762 43.8927 40.592 43.9755 40.372L44.9191 40.6359C44.8199 40.9548 44.6529 41.2352 44.4183 41.4772C44.1838 41.7163 43.894 41.9033 43.5491 42.038C43.2043 42.1699 42.8166 42.2359 42.3861 42.2359ZM46.5044 42.1039V35.7701H47.4481V36.7267H47.5143C47.6302 36.4134 47.8399 36.1591 48.1435 35.9639C48.447 35.7687 48.7891 35.6711 49.17 35.6711C49.2417 35.6711 49.3313 35.6725 49.439 35.6752C49.5466 35.678 49.628 35.6821 49.6832 35.6876V36.6773C49.65 36.6691 49.5742 36.6566 49.4555 36.6402C49.3396 36.6209 49.2168 36.6113 49.0872 36.6113C48.7781 36.6113 48.5022 36.6759 48.2594 36.8051C48.0193 36.9316 47.8289 37.1075 47.6882 37.3329C47.5502 37.5556 47.4812 37.8099 47.4812 38.0958V42.1039H46.5044ZM56.2332 35.7701L53.8822 42.1039H52.8889L50.5379 35.7701H51.5975L53.3524 40.8174H53.4186L55.1736 35.7701H56.2332ZM59.9604 42.2359C59.3478 42.2359 58.8194 42.1012 58.3751 41.8318C57.9337 41.5596 57.5929 41.1803 57.3528 40.6936C57.1155 40.2043 56.9969 39.6353 56.9969 38.9865C56.9969 38.3377 57.1155 37.7659 57.3528 37.2711C57.5929 36.7735 57.9267 36.3859 58.3544 36.1082C58.7849 35.8278 59.2871 35.6876 59.861 35.6876C60.1921 35.6876 60.5191 35.7426 60.842 35.8526C61.1649 35.9625 61.4587 36.1412 61.7236 36.3886C61.9885 36.6333 62.1996 36.9577 62.3568 37.3618C62.5141 37.7659 62.5928 38.2635 62.5928 38.8545V39.2669H57.6922V38.4257H61.5995C61.5995 38.0683 61.5277 37.7494 61.3842 37.469C61.2435 37.1886 61.042 36.9673 60.7799 36.8051C60.5205 36.6429 60.2142 36.5618 59.861 36.5618C59.472 36.5618 59.1353 36.658 58.8511 36.8505C58.5697 37.0401 58.353 37.2875 58.2013 37.5927C58.0495 37.8978 57.9737 38.225 57.9737 38.5742V39.1349C57.9737 39.6133 58.0564 40.0188 58.222 40.3514C58.3903 40.6813 58.6235 40.9329 58.9215 41.106C59.2195 41.2764 59.5658 41.3617 59.9604 41.3617C60.217 41.3617 60.4488 41.3259 60.6557 41.2544C60.8655 41.1803 61.0462 41.0703 61.1979 40.9246C61.3497 40.7762 61.467 40.592 61.5498 40.372L62.4934 40.6359C62.3941 40.9548 62.2272 41.2352 61.9926 41.4772C61.7581 41.7163 61.4683 41.9033 61.1234 42.038C60.7785 42.1699 60.3909 42.2359 59.9604 42.2359ZM64.0787 42.1039V35.7701H65.0224V36.7267H65.0886C65.2045 36.4134 65.4142 36.1591 65.7178 35.9639C66.0213 35.7687 66.3634 35.6711 66.7443 35.6711C66.8159 35.6711 66.9056 35.6725 67.0133 35.6752C67.1209 35.678 67.2023 35.6821 67.2575 35.6876V36.6773C67.2243 36.6691 67.1485 36.6566 67.0298 36.6402C66.9139 36.6209 66.7911 36.6113 66.6614 36.6113C66.3524 36.6113 66.0765 36.6759 65.8337 36.8051C65.5936 36.9316 65.4032 37.1075 65.2625 37.3329C65.1245 37.5556 65.0555 37.8099 65.0555 38.0958V42.1039H64.0787ZM76.4616 35.7701C76.412 35.3522 76.2105 35.0278 75.8573 34.7969C75.5041 34.566 75.0709 34.4505 74.5577 34.4505C74.1824 34.4505 73.854 34.511 73.5726 34.6319C73.2939 34.7529 73.0759 34.9193 72.9186 35.1309C72.7641 35.3426 72.6868 35.5832 72.6868 35.8526C72.6868 36.078 72.7406 36.2718 72.8482 36.434C72.9586 36.5934 73.0993 36.7267 73.2705 36.8339C73.4415 36.9385 73.6209 37.025 73.8085 37.0938C73.9962 37.1597 74.1686 37.2134 74.3259 37.2546L75.1868 37.4855C75.4076 37.5432 75.6531 37.623 75.9235 37.7247C76.1967 37.8264 76.4575 37.9652 76.7058 38.1412C76.9569 38.3143 77.1639 38.537 77.3266 38.8092C77.4895 39.0813 77.5709 39.4154 77.5709 39.8112C77.5709 40.2676 77.4509 40.6799 77.2107 41.0483C76.9735 41.4166 76.6258 41.7094 76.1677 41.9266C75.7124 42.1438 75.1592 42.2523 74.508 42.2523C73.901 42.2523 73.3753 42.1548 72.931 41.9596C72.4895 41.7644 72.1418 41.4923 71.888 41.1431C71.6369 40.794 71.4948 40.3885 71.4617 39.9267H72.5212C72.5488 40.2456 72.6565 40.5095 72.8441 40.7184C73.0345 40.9246 73.2745 41.0785 73.5643 41.1803C73.8568 41.2792 74.1714 41.3287 74.508 41.3287C74.8998 41.3287 75.2517 41.2655 75.5635 41.139C75.8752 41.0098 76.1222 40.8311 76.3043 40.6029C76.4864 40.372 76.5775 40.1026 76.5775 39.7947C76.5775 39.5143 76.4989 39.2861 76.3416 39.1102C76.1843 38.9343 75.9774 38.7913 75.7207 38.6813C75.4641 38.5714 75.1868 38.4752 74.8888 38.3927L73.8457 38.0958C73.1835 37.9061 72.6592 37.6353 72.2729 37.2835C71.8866 36.9316 71.6935 36.4711 71.6935 35.902C71.6935 35.4292 71.8218 35.0168 72.0784 34.665C72.3378 34.3103 72.6854 34.0354 73.1214 33.8402C73.5602 33.6423 74.0499 33.5433 74.5908 33.5433C75.1372 33.5433 75.6228 33.6409 76.0477 33.8361C76.4727 34.0285 76.8093 34.2924 77.0576 34.6279C77.3087 34.9632 77.4412 35.344 77.455 35.7701H76.4616ZM81.8909 35.7701V36.5948H78.596V35.7701H81.8909ZM79.5569 34.2526H80.5337V40.2895C80.5337 40.5645 80.5731 40.7706 80.6532 40.9081C80.7362 41.0428 80.8411 41.1335 80.9679 41.1803C81.0976 41.2242 81.2345 41.2462 81.378 41.2462C81.4851 41.2462 81.574 41.2407 81.6425 41.2298C81.7117 41.216 81.767 41.205 81.8085 41.1967L82.0067 42.0709C81.9404 42.0957 81.8479 42.1204 81.7299 42.1452C81.6111 42.1727 81.4603 42.1864 81.2782 42.1864C81.0021 42.1864 80.7319 42.1273 80.4674 42.0091C80.2052 41.8909 79.9874 41.7108 79.8133 41.4689C79.6421 41.227 79.5569 40.9218 79.5569 40.5534V34.2526ZM85.2309 42.2523C84.828 42.2523 84.4624 42.1768 84.1345 42.0256C83.806 41.8716 83.5452 41.6503 83.3522 41.3617C83.1591 41.0703 83.0622 40.7184 83.0622 40.306C83.0622 39.9431 83.1344 39.649 83.2779 39.4236C83.4214 39.1954 83.613 39.0167 83.8526 38.8875C84.093 38.7584 84.3582 38.6621 84.6474 38.5989C84.9402 38.5329 85.2338 38.4807 85.5288 38.4421C85.9156 38.3927 86.2289 38.3556 86.4686 38.3308C86.7119 38.3034 86.8882 38.258 86.9989 38.1947C87.1118 38.1315 87.1679 38.0216 87.1679 37.8649V37.8319C87.1679 37.425 87.0564 37.1089 86.8328 36.8834C86.6121 36.658 86.277 36.5453 85.8275 36.5453C85.3606 36.5453 84.9956 36.6471 84.7304 36.8505C84.4653 37.0539 84.2795 37.2711 84.1717 37.502L83.2444 37.1721C83.4097 36.7872 83.6305 36.4876 83.9065 36.2732C84.1855 36.056 84.4886 35.9048 84.8171 35.8196C85.1486 35.7316 85.4742 35.6876 85.794 35.6876C85.998 35.6876 86.2325 35.7124 86.4977 35.7619C86.765 35.8086 87.0237 35.9061 87.2721 36.0546C87.5227 36.203 87.731 36.4271 87.8964 36.7267C88.0624 37.0264 88.1448 37.4278 88.1448 37.9308V42.1039H87.1679V41.2462H87.1184C87.0521 41.3837 86.9421 41.5307 86.7876 41.6874C86.6332 41.8441 86.427 41.9775 86.1706 42.0875C85.9142 42.1974 85.6009 42.2523 85.2309 42.2523ZM85.3802 41.3782C85.7663 41.3782 86.0919 41.3026 86.3571 41.1514C86.6245 41.0002 86.8262 40.805 86.961 40.5658C87.0994 40.3266 87.1679 40.0751 87.1679 39.8112V38.9205C87.1271 38.97 87.036 39.0153 86.8947 39.0566C86.757 39.0951 86.5968 39.1294 86.4146 39.1597C86.2354 39.1872 86.0606 39.2119 85.8894 39.2339C85.7212 39.2532 85.5842 39.2696 85.4793 39.2834C85.2258 39.3164 84.9883 39.37 84.7676 39.4442C84.5498 39.5157 84.3727 39.6242 84.238 39.77C84.1054 39.913 84.0391 40.1081 84.0391 40.3555C84.0391 40.6936 84.1644 40.9493 84.4157 41.1225C84.67 41.293 84.9912 41.3782 85.3802 41.3782ZM92.6926 35.7701V36.5948H89.3984V35.7701H92.6926ZM90.3586 34.2526H91.3355V40.2895C91.3355 40.5645 91.3755 40.7706 91.4549 40.9081C91.538 41.0428 91.6429 41.1335 91.7696 41.1803C91.8993 41.2242 92.0362 41.2462 92.1797 41.2462C92.2868 41.2462 92.3757 41.2407 92.4442 41.2298C92.5134 41.216 92.5687 41.205 92.6103 41.1967L92.8084 42.0709C92.7421 42.0957 92.6503 42.1204 92.5316 42.1452C92.4129 42.1727 92.2621 42.1864 92.0799 42.1864C91.8046 42.1864 91.5336 42.1273 91.2692 42.0091C91.0069 41.8909 90.7891 41.7108 90.615 41.4689C90.4438 41.227 90.3586 40.9218 90.3586 40.5534V34.2526ZM98.1685 39.5143V35.7701H99.1454V42.1039H98.1685V41.0318H98.1022C97.9536 41.3534 97.7219 41.627 97.4072 41.8524C97.0925 42.075 96.6955 42.1864 96.2155 42.1864C95.8177 42.1864 95.4644 42.0998 95.1555 41.9266C94.8467 41.7507 94.6034 41.4868 94.4271 41.1349C94.2508 40.7802 94.1619 40.3335 94.1619 39.7947V35.7701H95.1388V39.7288C95.1388 40.1906 95.2684 40.5589 95.5278 40.8339C95.79 41.1088 96.1244 41.2462 96.5294 41.2462C96.7727 41.2462 97.0197 41.1844 97.2703 41.0607C97.5245 40.9369 97.7372 40.7473 97.9077 40.4916C98.0818 40.2359 98.1685 39.9102 98.1685 39.5143ZM105.438 37.1886L104.56 37.436C104.505 37.2903 104.424 37.1487 104.316 37.0113C104.211 36.8711 104.068 36.7556 103.885 36.6649C103.703 36.5742 103.47 36.5288 103.186 36.5288C102.797 36.5288 102.473 36.6182 102.214 36.7969C101.957 36.9728 101.828 37.1968 101.828 37.469C101.828 37.7109 101.917 37.902 102.093 38.0422C102.27 38.1824 102.546 38.2992 102.921 38.3927L103.865 38.6236C104.433 38.761 104.857 38.9714 105.136 39.2545C105.415 39.5349 105.554 39.8964 105.554 40.339C105.554 40.7019 105.449 41.0263 105.239 41.3122C105.032 41.5981 104.742 41.8235 104.37 41.9885C103.998 42.1534 103.564 42.2359 103.07 42.2359C102.422 42.2359 101.885 42.0957 101.46 41.8153C101.035 41.5349 100.766 41.1253 100.653 40.5865L101.581 40.3555C101.669 40.6964 101.836 40.9521 102.081 41.1225C102.329 41.293 102.654 41.3782 103.054 41.3782C103.509 41.3782 103.871 41.2819 104.138 41.0895C104.409 40.8943 104.544 40.6607 104.544 40.3885C104.544 40.1686 104.467 39.9844 104.312 39.836C104.157 39.6848 103.92 39.5721 103.6 39.4978L102.541 39.2504C101.959 39.113 101.53 38.8999 101.257 38.6112C100.987 38.3199 100.852 37.9556 100.852 37.5185C100.852 37.1611 100.953 36.845 101.154 36.5701C101.358 36.2951 101.635 36.0794 101.986 35.9227C102.339 35.7659 102.739 35.6876 103.186 35.6876C103.816 35.6876 104.309 35.8251 104.668 36.1C105.029 36.3749 105.286 36.7378 105.438 37.1886ZM110.65 38.5411C110.65 37.502 110.785 36.5467 111.056 35.6752C111.329 34.801 111.718 33.9969 112.223 33.2629H113.084C112.885 33.5351 112.699 33.8705 112.525 34.2691C112.354 34.665 112.203 35.1007 112.073 35.5763C111.944 36.0491 111.842 36.5384 111.768 37.0443C111.695 37.5501 111.66 38.0491 111.66 38.5411C111.66 39.1954 111.723 39.8593 111.851 40.5328C111.977 41.2064 112.149 41.8318 112.363 42.4091C112.579 42.9864 112.819 43.4565 113.084 43.8193H112.223C111.718 43.0854 111.329 42.2826 111.056 41.4112C110.785 40.537 110.65 39.5803 110.65 38.5411ZM115.502 38.2937V42.1039H114.525V35.7701H115.469V36.7598H115.552C115.701 36.4381 115.927 36.1797 116.23 35.9845C116.534 35.7866 116.926 35.6876 117.406 35.6876C117.836 35.6876 118.213 35.7756 118.536 35.9515C118.858 36.1247 119.11 36.3886 119.289 36.7432C119.468 37.0951 119.558 37.5405 119.558 38.0793V42.1039H118.582V38.1453C118.582 37.6477 118.452 37.2601 118.193 36.9824C117.933 36.702 117.577 36.5618 117.125 36.5618C116.813 36.5618 116.534 36.6291 116.288 36.7638C116.046 36.8986 115.854 37.0951 115.713 37.3535C115.572 37.6119 115.502 37.9253 115.502 38.2937ZM123.926 42.2359C123.352 42.2359 122.848 42.0998 122.415 41.8276C121.985 41.5555 121.648 41.1748 121.405 40.6854C121.165 40.1961 121.045 39.6242 121.045 38.97C121.045 38.3102 121.165 37.7343 121.405 37.2422C121.648 36.7501 121.985 36.368 122.415 36.0958C122.848 35.8237 123.352 35.6876 123.926 35.6876C124.5 35.6876 125.002 35.8237 125.432 36.0958C125.866 36.368 126.202 36.7501 126.443 37.2422C126.685 37.7343 126.807 38.3102 126.807 38.97C126.807 39.6242 126.685 40.1961 126.443 40.6854C126.202 41.1748 125.866 41.5555 125.432 41.8276C125.002 42.0998 124.5 42.2359 123.926 42.2359ZM123.926 41.3617C124.362 41.3617 124.72 41.2504 125.002 41.0276C125.284 40.805 125.492 40.5122 125.627 40.1493C125.762 39.7865 125.83 39.3934 125.83 38.97C125.83 38.5466 125.762 38.1521 125.627 37.7865C125.492 37.4209 125.284 37.1254 125.002 36.8999C124.72 36.6745 124.362 36.5618 123.926 36.5618C123.49 36.5618 123.131 36.6745 122.85 36.8999C122.569 37.1254 122.36 37.4209 122.225 37.7865C122.089 38.1521 122.022 38.5466 122.022 38.97C122.022 39.3934 122.089 39.7865 122.225 40.1493C122.36 40.5122 122.569 40.805 122.85 41.0276C123.131 41.2504 123.49 41.3617 123.926 41.3617ZM129.522 42.1039L127.585 35.7701H128.611L129.985 40.6194H130.051L131.409 35.7701H132.452L133.793 40.6029H133.86L135.234 35.7701H136.26L134.323 42.1039H133.363L131.972 37.2381H131.873L130.482 42.1039H129.522ZM139.637 38.5411C139.637 39.5803 139.501 40.537 139.228 41.4112C138.958 42.2826 138.57 43.0854 138.064 43.8193H137.204C137.402 43.5472 137.587 43.2118 137.759 42.8132C137.933 42.4173 138.084 41.983 138.214 41.5101C138.343 41.0345 138.444 40.5439 138.516 40.038C138.59 39.5295 138.628 39.0305 138.628 38.5411C138.628 37.8869 138.564 37.2229 138.437 36.5494C138.311 35.8759 138.14 35.2505 137.924 34.6732C137.709 34.0959 137.469 33.6258 137.204 33.2629H138.064C138.57 33.9969 138.958 34.801 139.228 35.6752C139.501 36.5467 139.637 37.502 139.637 38.5411Z" fill="white"/>
</g>
<path d="M80.7006 70.1589H77.9813C77.9316 69.8084 77.8302 69.4971 77.6771 69.2249C77.5239 68.9486 77.3273 68.7136 77.0873 68.5198C76.8472 68.326 76.5699 68.1775 76.2553 68.0744C75.9449 67.9713 75.6076 67.9198 75.2433 67.9198C74.5852 67.9198 74.012 68.0827 73.5236 68.4084C73.0352 68.7301 72.6565 69.2002 72.3874 69.8187C72.1183 70.4331 71.9839 71.1795 71.9839 72.0578C71.9839 72.9609 72.1183 73.7197 72.3874 74.3341C72.6605 74.9485 73.0414 75.4124 73.5297 75.7258C74.0182 76.0392 74.5832 76.1959 75.2247 76.1959C75.5848 76.1959 75.918 76.1485 76.2243 76.0536C76.5347 75.9587 76.81 75.8206 77.05 75.6392C77.2901 75.4536 77.4888 75.2289 77.646 74.965C77.8075 74.7011 77.9192 74.4001 77.9813 74.0619L80.7006 74.0743C80.6299 74.6557 80.4544 75.2165 80.1732 75.7567C79.8956 76.2928 79.5212 76.7732 79.0491 77.1979C78.5815 77.6186 78.0227 77.9525 77.3729 78.2C76.7271 78.4432 75.9966 78.5652 75.1813 78.5652C74.0472 78.5652 73.0331 78.3093 72.139 77.7979C71.2491 77.2866 70.5455 76.5464 70.0281 75.5774C69.5149 74.6083 69.2583 73.4352 69.2583 72.0578C69.2583 70.6764 69.519 69.5012 70.0406 68.5322C70.5621 67.5631 71.2699 66.825 72.1639 66.3178C73.0579 65.8065 74.0637 65.5508 75.1813 65.5508C75.918 65.5508 76.6009 65.6539 77.2301 65.8601C77.8633 66.0662 78.4242 66.3673 78.9129 66.7632C79.401 67.1548 79.798 67.6353 80.1047 68.2044C80.415 68.7734 80.6139 69.4249 80.7006 70.1589ZM82.6281 78.3917V65.724H87.6451C88.6095 65.724 89.4305 65.9075 90.1095 66.2745C90.7884 66.6374 91.3056 67.1425 91.6618 67.7899C92.0217 68.4332 92.2016 69.1754 92.2016 70.0166C92.2016 70.8579 92.0195 71.6001 91.6553 72.2434C91.291 72.8867 90.7636 73.3877 90.0723 73.7464C89.3854 74.1052 88.5535 74.2846 87.5766 74.2846H84.3793V72.1382H87.1417C87.6596 72.1382 88.0858 72.0496 88.4209 71.8722C88.7603 71.6908 89.0131 71.4414 89.1785 71.1238C89.3482 70.8022 89.4327 70.4331 89.4327 70.0166C89.4327 69.5961 89.3482 69.229 89.1785 68.9157C89.0131 68.5981 88.7603 68.3528 88.4209 68.1796C88.0814 68.0023 87.6509 67.9136 87.1293 67.9136H85.3169V78.3917H82.6281ZM101.802 65.724H104.49V73.9506C104.49 74.8743 104.269 75.6825 103.826 76.3753C103.387 77.068 102.772 77.6082 101.982 77.9958C101.192 78.3794 100.27 78.571 99.219 78.571C98.1634 78.571 97.2404 78.3794 96.4501 77.9958C95.6597 77.6082 95.0448 77.068 94.6063 76.3753C94.1678 75.6825 93.9478 74.8743 93.9478 73.9506V65.724H96.6365V73.7217C96.6365 74.2042 96.7422 74.633 96.9527 75.0083C97.1683 75.3835 97.4706 75.6784 97.8596 75.8928C98.2486 76.1072 98.7017 76.2144 99.219 76.2144C99.7405 76.2144 100.194 76.1072 100.579 75.8928C100.968 75.6784 101.268 75.3835 101.479 75.0083C101.694 74.633 101.802 74.2042 101.802 73.7217V65.724Z" fill="#00C2FF"/>
<path d="M78.8951 149.02C77.7253 149.02 76.6823 148.806 75.7662 148.377C74.8556 147.949 74.1326 147.358 73.5973 146.604C73.062 145.851 72.7833 144.987 72.7612 144.014H76.238C76.2766 144.669 76.5525 145.199 77.0658 145.606C77.579 146.013 78.1888 146.217 78.8951 146.217C79.4582 146.217 79.955 146.093 80.3855 145.845C80.8211 145.593 81.1606 145.244 81.4032 144.798C81.6516 144.347 81.7762 143.831 81.7762 143.248C81.7762 142.653 81.6494 142.132 81.3952 141.681C81.1468 141.229 80.8022 140.877 80.3608 140.625C79.9193 140.372 79.4137 140.242 78.8455 140.237C78.3489 140.237 77.866 140.339 77.3969 140.542C76.9334 140.746 76.5718 141.023 76.3125 141.375L73.1255 140.806L73.9285 131.899H84.2923V134.819H76.8837L76.4449 139.05H76.5443C76.8423 138.632 77.2921 138.286 77.8936 138.011C78.4951 137.736 79.1683 137.599 79.9135 137.599C80.9341 137.599 81.8446 137.837 82.6452 138.316C83.4451 138.794 84.0774 139.451 84.5407 140.287C85.0047 141.117 85.2335 142.074 85.2276 143.157C85.2335 144.295 84.9683 145.307 84.4336 146.191C83.9033 147.072 83.161 147.764 82.2067 148.27C81.2575 148.77 80.1539 149.02 78.8951 149.02ZM88.3987 148.79L95.4262 134.934V134.819H87.2397V131.899H99.1348V134.86L92.0986 148.79H88.3987Z" fill="#00C2FF"/>
<path d="M85.7729 100.89C95.066 100.89 104.059 104.167 111.158 110.143C118.258 116.117 123.004 124.403 124.557 133.531C126.11 142.659 124.369 152.041 119.643 160.013C114.916 167.984 107.51 174.031 98.736 177.082" stroke="#00C2FF" stroke-width="12"/>
<path d="M85.7733 179.271C107.499 179.271 125.111 161.725 125.111 140.081C125.111 118.436 107.499 100.89 85.7733 100.89C64.0479 100.89 46.436 118.436 46.436 140.081C46.436 161.725 64.0479 179.271 85.7733 179.271Z" stroke="#00C2FF" stroke-opacity="0.2" stroke-width="12"/>
<path d="M177.088 78.3916V65.7239H182.104C183.064 65.7239 183.884 65.8949 184.563 66.2372C185.246 66.5753 185.765 67.0558 186.121 67.6784C186.481 68.297 186.661 69.0248 186.661 69.8619C186.661 70.7031 186.479 71.4268 186.115 72.0329C185.751 72.635 185.223 73.0968 184.532 73.4185C183.844 73.7401 183.013 73.9009 182.036 73.9009H178.677V71.7484H181.601C182.114 71.7484 182.541 71.6783 182.881 71.5381C183.219 71.3979 183.472 71.1876 183.638 70.9072C183.807 70.6268 183.893 70.2783 183.893 69.8619C183.893 69.4413 183.807 69.0867 183.638 68.798C183.472 68.5093 183.218 68.2908 182.874 68.1423C182.535 67.9898 182.106 67.9135 181.589 67.9135H179.776V78.3916H177.088ZM183.954 72.6267L187.115 78.3916H184.147L181.055 72.6267H183.954ZM190.752 78.3916H187.872L192.261 65.7239H195.726L200.109 78.3916H197.229L194.043 68.6186H193.944L190.752 78.3916ZM190.573 73.4123H197.377V75.503H190.573V73.4123ZM201.639 65.7239H204.955L208.456 74.2349H208.605L212.107 65.7239H215.422V78.3916H212.815V70.1464H212.709L209.419 78.3297H207.643L204.352 70.1155H204.247V78.3916H201.639V65.7239Z" fill="#00FF75"/>
<path d="M182.667 148.79L189.695 134.934V134.819H181.508V131.899H193.404V134.86L186.367 148.79H182.667ZM201.74 149.021C200.503 149.021 199.402 148.809 198.437 148.385C197.476 147.957 196.717 147.369 196.16 146.62C195.608 145.867 195.324 144.999 195.307 144.014H198.917C198.939 144.427 199.074 144.79 199.322 145.103C199.576 145.411 199.913 145.65 200.332 145.821C200.752 145.991 201.223 146.076 201.748 146.076C202.294 146.076 202.777 145.98 203.196 145.788C203.616 145.595 203.944 145.329 204.181 144.988C204.419 144.647 204.538 144.254 204.538 143.808C204.538 143.357 204.41 142.959 204.157 142.613C203.908 142.261 203.55 141.986 203.081 141.788C202.617 141.59 202.065 141.491 201.425 141.491H199.843V138.869H201.425C201.965 138.869 202.443 138.775 202.857 138.588C203.277 138.401 203.602 138.143 203.834 137.813C204.066 137.477 204.181 137.087 204.181 136.641C204.181 136.218 204.079 135.847 203.875 135.528C203.677 135.204 203.395 134.951 203.03 134.77C202.672 134.588 202.252 134.497 201.772 134.497C201.287 134.497 200.843 134.585 200.44 134.761C200.037 134.931 199.714 135.176 199.471 135.495C199.229 135.814 199.099 136.188 199.082 136.617H195.647C195.663 135.643 195.942 134.786 196.483 134.044C197.023 133.301 197.752 132.722 198.668 132.303C199.59 131.88 200.63 131.668 201.789 131.668C202.959 131.668 203.983 131.88 204.86 132.303C205.737 132.727 206.419 133.298 206.905 134.019C207.396 134.734 207.639 135.537 207.634 136.427C207.639 137.373 207.344 138.162 206.748 138.794C206.157 139.426 205.387 139.828 204.438 139.998V140.13C205.685 140.29 206.634 140.722 207.285 141.425C207.942 142.123 208.268 142.997 208.262 144.048C208.268 145.01 207.989 145.865 207.427 146.612C206.869 147.36 206.099 147.949 205.117 148.378C204.135 148.806 203.009 149.021 201.74 149.021Z" fill="#00FF75"/>
<path d="M195.043 100.89C204.337 100.89 213.329 104.167 220.428 110.143C227.528 116.117 232.275 124.403 233.828 133.531C235.381 142.659 233.64 152.041 228.914 160.013C224.187 167.984 216.78 174.031 208.007 177.082" stroke="#00FF75" stroke-width="12"/>
<path d="M195.043 179.271C216.769 179.271 234.381 161.725 234.381 140.081C234.381 118.436 216.769 100.89 195.043 100.89C173.318 100.89 155.706 118.436 155.706 140.081C155.706 161.725 173.318 179.271 195.043 179.271Z" stroke="#00FF75" stroke-opacity="0.2" stroke-width="12"/>
<path d="M279.828 69.3672C279.778 68.8682 279.565 68.4806 279.188 68.2044C278.812 67.9281 278.3 67.7899 277.655 67.7899C277.216 67.7899 276.845 67.8518 276.543 67.9755C276.242 68.0951 276.01 68.2621 275.848 68.4765C275.691 68.6909 275.612 68.9342 275.612 69.2064C275.604 69.4331 275.651 69.6311 275.755 69.8001C275.863 69.9692 276.01 70.1156 276.196 70.2393C276.382 70.3589 276.597 70.4641 276.842 70.5548C277.086 70.6414 277.347 70.7156 277.623 70.7774L278.766 71.0496C279.321 71.1733 279.83 71.3382 280.293 71.5444C280.757 71.7506 281.159 72.0043 281.498 72.3052C281.838 72.6063 282.1 72.9609 282.286 73.3691C282.476 73.7773 282.574 74.2454 282.578 74.7732C282.574 75.5485 282.375 76.2206 281.982 76.7897C281.593 77.3546 281.03 77.7937 280.293 78.1072C279.561 78.4164 278.677 78.571 277.642 78.571C276.616 78.571 275.722 78.4142 274.96 78.101C274.203 77.7876 273.611 77.3237 273.185 76.7093C272.762 76.0907 272.541 75.3258 272.521 74.4145H275.122C275.151 74.8392 275.273 75.1938 275.488 75.4784C275.708 75.7588 275.999 75.9712 276.363 76.1154C276.732 76.2557 277.148 76.3258 277.611 76.3258C278.066 76.3258 278.462 76.2598 278.797 76.1279C279.136 75.9959 279.399 75.8124 279.586 75.5774C279.772 75.3423 279.865 75.0722 279.865 74.7671C279.865 74.4825 279.78 74.2434 279.611 74.0495C279.445 73.8557 279.201 73.6908 278.878 73.5547C278.56 73.4186 278.168 73.2949 277.704 73.1836L276.32 72.8372C275.248 72.5774 274.401 72.1713 273.781 71.6187C273.16 71.0661 272.851 70.3218 272.856 69.3857C272.851 68.6188 273.057 67.9487 273.47 67.3755C273.889 66.8023 274.462 66.3549 275.19 66.0333C275.919 65.7116 276.746 65.5508 277.674 65.5508C278.617 65.5508 279.441 65.7116 280.145 66.0333C280.852 66.3549 281.403 66.8023 281.796 67.3755C282.189 67.9487 282.392 68.6126 282.404 69.3672H279.828ZM289.409 68.8909V70.8703H283.666V68.8909H289.409ZM284.97 66.6147H287.615V75.4722C287.615 75.7155 287.652 75.9052 287.727 76.0413C287.801 76.1732 287.904 76.266 288.037 76.3196C288.174 76.3732 288.331 76.4 288.509 76.4C288.633 76.4 288.757 76.3897 288.881 76.3691C289.006 76.3443 289.1 76.3258 289.167 76.3134L289.583 78.2742C289.451 78.3154 289.264 78.3628 289.024 78.4164C288.784 78.4744 288.492 78.5093 288.149 78.5216C287.512 78.5463 286.953 78.4621 286.472 78.268C285.996 78.0742 285.626 77.7731 285.361 77.3649C285.096 76.9567 284.966 76.4412 284.97 75.8185V66.6147ZM295.338 78.5775C294.374 78.5775 293.54 78.3731 292.836 77.9649C292.137 77.5525 291.597 76.9794 291.216 76.2454C290.835 75.5073 290.645 74.6516 290.645 73.6784C290.645 72.697 290.835 71.8393 291.216 71.1053C291.597 70.3672 292.137 69.794 292.836 69.3857C293.54 68.9734 294.374 68.7672 295.338 68.7672C296.303 68.7672 297.135 68.9734 297.834 69.3857C298.538 69.794 299.08 70.3672 299.461 71.1053C299.842 71.8393 300.032 72.697 300.032 73.6784C300.032 74.6516 299.842 75.5073 299.461 76.2454C299.08 76.9794 298.538 77.5525 297.834 77.9649C297.135 78.3731 296.303 78.5775 295.338 78.5775ZM295.351 76.5361C295.789 76.5361 296.156 76.4123 296.449 76.1649C296.744 75.9134 296.965 75.5711 297.114 75.1381C297.267 74.7052 297.344 74.2124 297.344 73.6599C297.344 73.1073 297.267 72.6145 297.114 72.1816C296.965 71.7486 296.744 71.4063 296.449 71.1548C296.156 70.9032 295.789 70.7774 295.351 70.7774C294.908 70.7774 294.536 70.9032 294.233 71.1548C293.935 71.4063 293.709 71.7486 293.556 72.1816C293.407 72.6145 293.333 73.1073 293.333 73.6599C293.333 74.2124 293.407 74.7052 293.556 75.1381C293.709 75.5711 293.935 75.9134 294.233 76.1649C294.536 76.4123 294.908 76.5361 295.351 76.5361ZM301.752 78.3917V68.8909H304.316V70.5486H304.415C304.589 69.9589 304.881 69.5135 305.291 69.2126C305.7 68.9074 306.172 68.7548 306.706 68.7548C306.839 68.7548 306.981 68.7631 307.134 68.7796C307.287 68.7961 307.422 68.8188 307.538 68.8476V71.1857C307.414 71.1486 307.242 71.1156 307.023 71.0868C306.804 71.0579 306.603 71.0434 306.421 71.0434C306.032 71.0434 305.684 71.128 305.377 71.297C305.075 71.462 304.835 71.6929 304.658 71.9898C304.483 72.2867 304.397 72.629 304.397 73.0166V78.3917H301.752ZM311.352 78.571C310.743 78.571 310.201 78.4657 309.725 78.2556C309.249 78.0412 308.873 77.7257 308.595 77.3092C308.322 76.8887 308.186 76.365 308.186 75.7382C308.186 75.2104 308.282 74.7671 308.477 74.4083C308.671 74.0495 308.937 73.7609 309.272 73.5424C309.607 73.3238 309.988 73.1589 310.414 73.0475C310.844 72.9362 311.295 72.8578 311.767 72.8125C312.323 72.7548 312.769 72.7011 313.109 72.6516C313.448 72.598 313.694 72.5197 313.847 72.4166C314.001 72.3135 314.077 72.1609 314.077 71.9589V71.9217C314.077 71.5301 313.953 71.2269 313.704 71.0125C313.46 70.7981 313.113 70.6909 312.661 70.6909C312.186 70.6909 311.807 70.796 311.526 71.0063C311.244 71.2125 311.058 71.4723 310.967 71.7857L308.521 71.5878C308.645 71.0104 308.889 70.5115 309.253 70.0909C309.617 69.6662 310.087 69.3404 310.662 69.1136C311.242 68.8826 311.912 68.7672 312.674 68.7672C313.204 68.7672 313.711 68.8291 314.195 68.9528C314.684 69.0765 315.116 69.2682 315.493 69.528C315.874 69.7878 316.173 70.1218 316.393 70.53C316.612 70.9341 316.722 71.4187 316.722 71.9837V78.3917H314.214V77.0742H314.139C313.986 77.3711 313.781 77.6329 313.525 77.8597C313.268 78.0825 312.96 78.2577 312.599 78.3855C312.24 78.5093 311.824 78.571 311.352 78.571ZM312.109 76.7526C312.498 76.7526 312.842 76.6763 313.14 76.5237C313.438 76.367 313.672 76.1567 313.841 75.8928C314.011 75.6289 314.096 75.3299 314.096 74.9959V73.9877C314.013 74.0413 313.899 74.0908 313.754 74.1362C313.613 74.1774 313.455 74.2166 313.276 74.2537C313.098 74.2866 312.921 74.3176 312.742 74.3464C312.564 74.3712 312.403 74.3939 312.258 74.4145C311.947 74.4598 311.676 74.532 311.445 74.631C311.213 74.7299 311.033 74.864 310.905 75.0331C310.776 75.1979 310.712 75.4041 310.712 75.6515C310.712 76.0104 310.842 76.2845 311.103 76.4743C311.368 76.6598 311.703 76.7526 312.109 76.7526ZM323.07 82.1526C322.214 82.1526 321.479 82.035 320.866 81.7998C320.258 81.569 319.773 81.2533 319.413 80.8535C319.054 80.4536 318.82 80.0043 318.712 79.505L321.158 79.177C321.232 79.3671 321.35 79.5442 321.512 79.7089C321.673 79.8744 321.887 80.0058 322.151 80.1052C322.421 80.2083 322.748 80.2598 323.132 80.2598C323.708 80.2598 324.181 80.1197 324.554 79.8389C324.931 79.5631 325.119 79.0986 325.119 78.4476V76.7093H325.007C324.892 76.9732 324.717 77.2226 324.486 77.4577C324.254 77.6927 323.956 77.8845 323.592 78.033C323.228 78.1814 322.793 78.2556 322.288 78.2556C321.572 78.2556 320.92 78.0907 320.332 77.7608C319.749 77.4268 319.283 76.9175 318.936 76.233C318.592 75.5443 318.42 74.6742 318.42 73.6228C318.42 72.5465 318.596 71.6476 318.948 70.9259C319.3 70.2042 319.768 69.6641 320.351 69.3053C320.939 68.9466 321.582 68.7672 322.281 68.7672C322.815 68.7672 323.263 68.8579 323.623 69.0393C323.983 69.2167 324.272 69.4394 324.492 69.7074C324.715 69.9713 324.887 70.2311 325.007 70.4868H325.106V68.8909H327.733V78.4846C327.733 79.2924 327.534 79.9688 327.137 80.5131C326.74 81.0574 326.189 81.466 325.485 81.7381C324.786 82.0139 323.981 82.1526 323.07 82.1526ZM323.126 76.2763C323.553 76.2763 323.912 76.1711 324.206 75.9609C324.505 75.7464 324.732 75.4413 324.889 75.0454C325.051 74.6454 325.131 74.1671 325.131 73.6104C325.131 73.0537 325.053 72.5712 324.895 72.163C324.739 71.7506 324.511 71.4311 324.213 71.2043C323.915 70.9775 323.553 70.864 323.126 70.864C322.692 70.864 322.325 70.9816 322.027 71.2166C321.729 71.4475 321.503 71.7692 321.35 72.1816C321.197 72.5939 321.121 73.0702 321.121 73.6104C321.121 74.1588 321.197 74.633 321.35 75.0331C321.508 75.4289 321.734 75.7361 322.027 75.9546C322.325 76.1691 322.692 76.2763 323.126 76.2763ZM334.183 78.5775C333.203 78.5775 332.358 78.3794 331.65 77.9835C330.947 77.5835 330.405 77.0186 330.024 76.2887C329.643 75.5547 329.452 74.6866 329.452 73.6846C329.452 72.7073 329.643 71.8496 330.024 71.1115C330.405 70.3733 330.941 69.7981 331.632 69.3857C332.327 68.9734 333.142 68.7672 334.078 68.7672C334.707 68.7672 335.293 68.8682 335.835 69.0703C336.382 69.2682 336.857 69.5672 337.263 69.9671C337.673 70.3672 337.992 70.8703 338.219 71.4764C338.447 72.0784 338.561 72.7836 338.561 73.5918V74.3155H330.508V72.6825H336.071C336.071 72.3032 335.988 71.9671 335.822 71.6743C335.657 71.3816 335.427 71.1527 335.133 70.9878C334.844 70.8187 334.507 70.7342 334.121 70.7342C333.72 70.7342 333.364 70.8269 333.053 71.0125C332.747 71.194 332.507 71.4393 332.334 71.7486C332.159 72.0537 332.071 72.3939 332.066 72.7691V74.3217C332.066 74.7918 332.154 75.1979 332.327 75.5402C332.505 75.8825 332.755 76.1464 333.078 76.3319C333.401 76.5175 333.784 76.6103 334.227 76.6103C334.521 76.6103 334.79 76.569 335.034 76.4866C335.278 76.4041 335.487 76.2804 335.661 76.1154C335.835 75.9506 335.967 75.7485 336.058 75.5093L338.504 75.6701C338.381 76.2557 338.126 76.767 337.741 77.2041C337.36 77.6371 336.868 77.9752 336.264 78.2185C335.663 78.4577 334.97 78.5775 334.183 78.5775Z" fill="#FF3030"/>
<path d="M299.678 131.899V148.79H296.094V135.289H295.995L292.112 137.714V134.547L296.309 131.899H299.678ZM309.974 149.021C308.738 149.021 307.637 148.809 306.671 148.385C305.711 147.957 304.952 147.369 304.395 146.62C303.842 145.867 303.558 144.999 303.541 144.014H307.151C307.173 144.427 307.308 144.79 307.557 145.103C307.81 145.411 308.147 145.65 308.566 145.821C308.986 145.991 309.458 146.076 309.982 146.076C310.528 146.076 311.011 145.98 311.431 145.788C311.85 145.595 312.178 145.329 312.416 144.988C312.653 144.647 312.772 144.254 312.772 143.808C312.772 143.357 312.645 142.959 312.391 142.613C312.143 142.261 311.784 141.986 311.315 141.788C310.851 141.59 310.299 141.491 309.659 141.491H308.078V138.869H309.659C310.2 138.869 310.678 138.775 311.091 138.588C311.511 138.401 311.837 138.143 312.068 137.813C312.3 137.477 312.416 137.087 312.416 136.641C312.416 136.218 312.314 135.847 312.11 135.528C311.911 135.204 311.63 134.951 311.265 134.77C310.906 134.588 310.487 134.497 310.007 134.497C309.521 134.497 309.077 134.585 308.674 134.761C308.271 134.931 307.949 135.176 307.705 135.495C307.463 135.814 307.333 136.188 307.316 136.617H303.881C303.898 135.643 304.177 134.786 304.717 134.044C305.258 133.301 305.986 132.722 306.903 132.303C307.824 131.88 308.864 131.668 310.023 131.668C311.193 131.668 312.217 131.88 313.095 132.303C313.972 132.727 314.654 133.298 315.139 134.019C315.63 134.734 315.873 135.537 315.868 136.427C315.873 137.373 315.578 138.162 314.982 138.794C314.391 139.426 313.621 139.828 312.672 139.998V140.13C313.92 140.29 314.869 140.722 315.52 141.425C316.177 142.123 316.502 142.997 316.497 144.048C316.502 145.01 316.223 145.865 315.661 146.612C315.104 147.36 314.334 147.949 313.351 148.378C312.369 148.806 311.243 149.021 309.974 149.021Z" fill="#FF3030"/>
<path d="M304.313 100.89C313.607 100.89 322.599 104.167 329.698 110.143C336.798 116.117 341.545 124.403 343.098 133.531C344.651 142.659 342.91 152.041 338.184 160.013C333.457 167.984 326.05 174.031 317.277 177.082" stroke="#FF3030" stroke-width="12"/>
<path d="M304.313 179.271C326.039 179.271 343.651 161.725 343.651 140.081C343.651 118.436 326.039 100.89 304.313 100.89C282.588 100.89 264.976 118.436 264.976 140.081C264.976 161.725 282.588 179.271 304.313 179.271Z" stroke="#FF3030" stroke-opacity="0.2" stroke-width="12"/>
<path d="M397.274 78.3916V65.7239H402.29C403.255 65.7239 404.076 65.9073 404.755 66.2744C405.434 66.6372 405.951 67.1424 406.307 67.7897C406.667 68.433 406.847 69.1753 406.847 70.0165C406.847 70.8577 406.665 71.5999 406.301 72.2433C405.937 72.8866 405.409 73.3876 404.718 73.7463C404.03 74.105 403.199 74.2844 402.222 74.2844H399.024V72.1381H401.788C402.305 72.1381 402.731 72.0495 403.066 71.8721C403.405 71.6907 403.658 71.4412 403.824 71.1237C403.993 70.8021 404.079 70.433 404.079 70.0165C404.079 69.5959 403.993 69.2289 403.824 68.9155C403.658 68.598 403.405 68.3526 403.066 68.1795C402.727 68.0022 402.297 67.9135 401.775 67.9135H399.962V78.3916H397.274ZM411.188 65.7239V78.3916H408.544V65.7239H411.188ZM416.027 78.5708C415.418 78.5708 414.876 78.4656 414.4 78.2555C413.924 78.041 413.547 77.7256 413.27 77.3091C412.997 76.8885 412.86 76.3648 412.86 75.7381C412.86 75.2102 412.958 74.7669 413.152 74.4082C413.347 74.0494 413.611 73.7607 413.947 73.5422C414.282 73.3236 414.663 73.1587 415.089 73.0474C415.52 72.9361 415.971 72.8577 416.443 72.8123C416.997 72.7546 417.444 72.701 417.784 72.6515C418.123 72.5979 418.37 72.5195 418.523 72.4164C418.676 72.3134 418.752 72.1608 418.752 71.9588V71.9216C418.752 71.5299 418.628 71.2268 418.38 71.0124C418.136 70.7979 417.788 70.6907 417.337 70.6907C416.861 70.6907 416.482 70.7959 416.2 71.0062C415.919 71.2124 415.733 71.4721 415.642 71.7855L413.195 71.5876C413.32 71.0103 413.564 70.5113 413.928 70.0907C414.292 69.666 414.762 69.3402 415.338 69.1134C415.917 68.8825 416.588 68.767 417.349 68.767C417.879 68.767 418.386 68.8289 418.87 68.9526C419.359 69.0764 419.791 69.2681 420.167 69.5278C420.548 69.7877 420.849 70.1217 421.068 70.5299C421.287 70.934 421.397 71.4185 421.397 71.9835V78.3916H418.889V77.0741H418.814C418.661 77.371 418.456 77.6328 418.2 77.8596C417.943 78.0823 417.635 78.2575 417.275 78.3854C416.914 78.5091 416.498 78.5708 416.027 78.5708ZM416.784 76.7524C417.173 76.7524 417.517 76.6762 417.815 76.5235C418.112 76.3668 418.346 76.1566 418.516 75.8926C418.686 75.6288 418.771 75.3297 418.771 74.9958V73.9875C418.688 74.0412 418.574 74.0907 418.429 74.136C418.289 74.1772 418.129 74.2164 417.951 74.2535C417.773 74.2865 417.595 74.3175 417.418 74.3463C417.239 74.371 417.078 74.3937 416.933 74.4143C416.623 74.4597 416.352 74.5318 416.12 74.6308C415.888 74.7298 415.708 74.8638 415.58 75.0329C415.451 75.1978 415.387 75.404 415.387 75.6514C415.387 76.0102 415.518 76.2844 415.778 76.4741C416.043 76.6596 416.379 76.7524 416.784 76.7524ZM424.74 81.9543C424.405 81.9543 424.09 81.9274 423.797 81.8737C423.507 81.8244 423.267 81.7605 423.076 81.6821L423.672 79.7153C423.983 79.8104 424.262 79.8619 424.511 79.8699C424.763 79.8779 424.98 79.8206 425.163 79.6965C425.349 79.5731 425.5 79.3626 425.616 79.0658L425.771 78.6637L422.35 68.8908H425.131L427.105 75.8679H427.205L429.198 68.8908H431.998L428.291 79.4185C428.114 79.9294 427.872 80.375 427.565 80.7546C427.263 81.1378 426.88 81.4325 426.416 81.6386C425.953 81.849 425.394 81.9543 424.74 81.9543ZM437.39 78.5773C436.409 78.5773 435.565 78.3792 434.857 77.9833C434.153 77.5834 433.611 77.0184 433.23 76.2885C432.849 75.5545 432.659 74.6865 432.659 73.6845C432.659 72.7072 432.849 71.8495 433.23 71.1114C433.611 70.3732 434.147 69.798 434.839 69.3856C435.534 68.9732 436.349 68.767 437.285 68.767C437.914 68.767 438.499 68.8681 439.041 69.0701C439.588 69.2681 440.064 69.567 440.47 69.967C440.879 70.367 441.198 70.8701 441.426 71.4763C441.654 72.0783 441.767 72.7834 441.767 73.5917V74.3154H433.715V72.6824H439.277C439.277 72.3031 439.195 71.967 439.029 71.6742C438.864 71.3814 438.634 71.1526 438.34 70.9876C438.051 70.8185 437.713 70.734 437.328 70.734C436.927 70.734 436.57 70.8268 436.26 71.0124C435.954 71.1938 435.714 71.4392 435.54 71.7484C435.366 72.0535 435.277 72.3938 435.273 72.769V74.3215C435.273 74.7917 435.36 75.1978 435.534 75.5401C435.712 75.8823 435.962 76.1462 436.285 76.3318C436.608 76.5174 436.991 76.6102 437.434 76.6102C437.727 76.6102 437.997 76.5689 438.241 76.4865C438.485 76.404 438.694 76.2803 438.868 76.1153C439.041 75.9504 439.174 75.7484 439.265 75.5091L441.711 75.67C441.587 76.2555 441.332 76.7669 440.948 77.2039C440.567 77.6369 440.074 77.975 439.47 78.2184C438.87 78.4576 438.177 78.5773 437.39 78.5773ZM443.493 78.3916V68.8908H446.057V70.5485H446.156C446.33 69.9588 446.623 69.5134 447.032 69.2124C447.442 68.9073 447.913 68.7547 448.447 68.7547C448.58 68.7547 448.723 68.763 448.876 68.7794C449.029 68.7959 449.163 68.8186 449.279 68.8475V71.1855C449.155 71.1485 448.983 71.1154 448.764 71.0866C448.545 71.0577 448.344 71.0433 448.162 71.0433C447.773 71.0433 447.425 71.1278 447.119 71.2969C446.817 71.4618 446.577 71.6928 446.399 71.9897C446.225 72.2866 446.138 72.6289 446.138 73.0165V78.3916H443.493ZM458.582 71.5999L456.16 71.7484C456.119 71.5423 456.03 71.3567 455.893 71.1917C455.757 71.0227 455.577 70.8886 455.353 70.7897C455.134 70.6866 454.871 70.6351 454.564 70.6351C454.155 70.6351 453.809 70.7216 453.528 70.8949C453.246 71.0639 453.106 71.2907 453.106 71.5753C453.106 71.8021 453.197 71.9938 453.379 72.1505C453.561 72.3072 453.874 72.433 454.316 72.5278L456.042 72.8742C456.97 73.0639 457.66 73.369 458.116 73.7896C458.571 74.2102 458.799 74.7628 458.799 75.4473C458.799 76.0699 458.615 76.6164 458.246 77.0864C457.882 77.5565 457.381 77.9235 456.744 78.1875C456.111 78.4474 455.38 78.5773 454.552 78.5773C453.289 78.5773 452.284 78.3153 451.535 77.7916C450.79 77.2637 450.353 76.5463 450.225 75.6391L452.826 75.503C452.905 75.8865 453.095 76.1792 453.397 76.3813C453.7 76.5792 454.086 76.6782 454.558 76.6782C455.022 76.6782 455.395 76.5895 455.676 76.4122C455.961 76.2308 456.106 75.9978 456.111 75.7133C456.106 75.4741 456.005 75.2782 455.806 75.1257C455.607 74.969 455.301 74.8494 454.888 74.7669L453.236 74.4391C452.305 74.2535 451.611 73.9319 451.156 73.4741C450.705 73.0164 450.479 72.433 450.479 71.7237C450.479 71.1134 450.645 70.5877 450.976 70.1464C451.311 69.7051 451.781 69.365 452.385 69.1259C452.994 68.8866 453.705 68.767 454.521 68.767C455.725 68.767 456.673 69.0207 457.364 69.5278C458.06 70.0351 458.466 70.7258 458.582 71.5999Z" fill="#FFD600"/>
<path d="M400.112 120.09V153.87H392.943V126.868H392.744L384.979 131.718V125.384L393.374 120.09H400.112ZM409.512 153.87L423.568 126.159V125.929H407.194V120.09H430.985V126.011L416.913 153.87H409.512Z" fill="#FFD600"/>
<path d="M441.941 136.188L436.478 156.41H433.439L438.903 136.188H441.941ZM443.607 153.87V151.297L449.642 145.73C450.155 145.235 450.585 144.79 450.933 144.394C451.286 143.998 451.554 143.611 451.736 143.231C451.919 142.847 452.01 142.431 452.01 141.986C452.01 141.491 451.896 141.065 451.67 140.708C451.444 140.345 451.135 140.067 450.743 139.875C450.351 139.676 449.906 139.578 449.41 139.578C448.891 139.578 448.439 139.682 448.053 139.891C447.666 140.1 447.368 140.399 447.158 140.79C446.949 141.18 446.844 141.645 446.844 142.184H443.441C443.441 141.079 443.693 140.119 444.195 139.306C444.697 138.492 445.401 137.862 446.306 137.417C447.21 136.972 448.254 136.749 449.434 136.749C450.649 136.749 451.706 136.964 452.605 137.392C453.51 137.816 454.214 138.403 454.716 139.157C455.218 139.91 455.47 140.774 455.47 141.746C455.47 142.384 455.342 143.014 455.089 143.635C454.84 144.257 454.396 144.947 453.756 145.705C453.116 146.459 452.214 147.363 451.049 148.419L448.574 150.835V150.95H455.693V153.87H443.607ZM464.938 154.241C463.513 154.236 462.288 153.887 461.262 153.194C460.241 152.501 459.454 151.498 458.903 150.183C458.357 148.87 458.086 147.289 458.092 145.441C458.092 143.599 458.365 142.03 458.911 140.732C459.463 139.435 460.249 138.448 461.271 137.771C462.297 137.09 463.519 136.749 464.938 136.749C466.356 136.749 467.575 137.09 468.596 137.771C469.623 138.454 470.412 139.443 470.964 140.74C471.516 142.032 471.789 143.599 471.783 145.441C471.783 147.294 471.508 148.878 470.956 150.192C470.409 151.506 469.625 152.509 468.605 153.202C467.583 153.895 466.361 154.241 464.938 154.241ZM464.938 151.281C465.909 151.281 466.684 150.794 467.264 149.82C467.843 148.848 468.13 147.388 468.125 145.441C468.125 144.16 467.992 143.094 467.727 142.241C467.468 141.389 467.098 140.748 466.618 140.32C466.143 139.891 465.583 139.676 464.938 139.676C463.972 139.676 463.199 140.158 462.62 141.12C462.04 142.082 461.748 143.522 461.742 145.441C461.742 146.739 461.872 147.822 462.131 148.691C462.396 149.554 462.768 150.203 463.249 150.637C463.729 151.066 464.291 151.281 464.938 151.281Z" fill="#A3A3A3"/>
<rect x="14.2109" y="14.3313" width="492.789" height="193.439" rx="11" stroke="#131A29" stroke-width="12"/>
<defs>
<filter id="filter0_d_1017_3311" x="0.210938" y="0.331299" width="520.789" height="221.439" filterUnits="userSpaceOnUse" color-interpolation-filters="sRGB">
<feFlood flood-opacity="0" result="BackgroundImageFix"/>
<feColorMatrix in="SourceAlpha" type="matrix" values="0 0 0 0 0 0 0 0 0 0 0 0 0 0 0 0 0 0 127 0" result="hardAlpha"/>
<feOffset/>
<feGaussianBlur stdDeviation="10"/>
<feComposite in2="hardAlpha" operator="out"/>
<feColorMatrix type="matrix" values="0 0 0 0 0 0 0 0 0 0 0 0 0 0 0 0 0 0 0.25 0"/>
<feBlend mode="normal" in2="BackgroundImageFix" result="effect1_dropShadow_1017_3311"/>
<feBlend mode="normal" in="SourceGraphic" in2="effect1_dropShadow_1017_3311" result="shape"/>
</filter>
</defs>
</svg>
